<?xml version="1.0" encoding="utf-8"?>
<!-- Generator: Adobe Illustrator 27.0.0, SVG Export Plug-In . SVG Version: 6.00 Build 0)  -->
<svg version="1.1" id="Layer_1" xmlns="http://www.w3.org/2000/svg" xmlns:xlink="http://www.w3.org/1999/xlink" x="0px" y="0px"
	 viewBox="0 0 450 450" style="enable-background:new 0 0 450 450;" xml:space="preserve">
<style type="text/css">
	.st0{fill:none;stroke:#000000;stroke-width:0.5;stroke-miterlimit:10;}
	.st1{stroke:#000000;stroke-width:0.5;stroke-miterlimit:10;}
</style>
<g>
	<path class="st0" d="M404.46,185.87c-1.24-7.38-2.91-13.92-5.17-17.72c-0.79-1.34-1.66-2.34-2.61-2.92c0,0-0.01,0-0.01-0.01
		c-0.26-0.16-0.52-0.29-0.8-0.37c-0.02-0.01-0.03-0.02-0.05-0.02c-0.05-0.02-0.1-0.04-0.15-0.05h-3.96c-40.12,0-351.14,0-351.14,0
		s-9.21-3.07-7.67,44.51c0.04,1.77,0.07,3.47,0.1,5.12c0.35,19.33,0.4,30.97,0.33,37.99c-0.01,1.06-0.02,2.03-0.04,2.89
		c-0.12,7.47-0.39,7.74-0.39,7.74s0,1.54,2.05,2.05c2.05,0.51,4.69,0,4.69,0l21.41,3.58h66.87c0,0-4.96-30.7,21.65-30.7
		c14.07,0,19.41,8.15,21.32,15.83c1.7,6.86,0.68,13.33,0.68,13.33l12.79,0.14l131.49,1.4c0,0-5.11-29.68,20.98-29.68
		s20.07,29.68,20.07,29.68h38.48c0,0,10.01-0.69,12.57-4.18v-31.25c0-3.32,0-5.51,0-5.51S407.54,204.18,404.46,185.87z
		 M96.31,265.89v-4.27h9.6v4.27H96.31z M248.81,266.09v-4.61h10.29v4.61H248.81z"/>
	<polyline class="st0" points="104.72,164.74 104.72,161.71 75.27,161.71 75.27,164.74 	"/>
	<path class="st0" d="M386.73,164.74v-2.31c0,0,4.1-0.04,6.52,1.16c2.41,1.2,3.42,1.64,3.42,1.64"/>
	<path class="st0" d="M404.46,185.87h3.66c0.83,0,1.55,0.6,1.69,1.42c0.5,2.84,1.5,9.4,1.15,14.85h6.7
		c0.51-3.58,0.83-9.8-2.05-16.37c-0.5-1.15-1.06-2.21-1.63-3.16c-0.54-0.9-1.5-1.46-2.55-1.48l-7.84,0.03"/>
	<path class="st0" d="M407.94,221.09h2.97c0,0,1.12,7.65-0.93,12.26c-2.05,4.6-2.05,4.6-2.05,4.6"/>
	<path class="st0" d="M166.94,262c0,0,2-19.15-16.37-20.47C129.08,240,130.74,262,130.74,262s0.07,17.25,18.14,17.32
		C166.94,279.4,166.94,262,166.94,262z"/>
	<polyline class="st0" points="32.89,209.3 40.05,214.41 39.62,265.07 	"/>
	<line class="st0" x1="33.28" y1="255.29" x2="39.7" y2="255.29"/>
	<line class="st0" x1="32.89" y1="252.4" x2="40.05" y2="252.4"/>
	<polyline class="st0" points="33.28,217.55 43.56,217.56 184.34,218 184.34,235.05 43.63,234.88 43.63,218.51 42.61,218.51 
		42.61,234.37 41.59,234.37 41.59,218.51 40.05,218.44 	"/>
	<polyline class="st0" points="32.98,214.41 40.05,214.41 40.56,164.78 	"/>
	<polygon class="st0" points="43.63,238.46 43.63,263.31 50.75,263.31 50.75,265.07 58.58,265.07 58.58,265.89 82.54,265.89 
		82.54,238.46 	"/>
	<polygon class="st0" points="80.98,262 80.98,239.59 44.33,239.59 44.33,262.3 	"/>
	<polygon class="st0" points="117.27,238.46 117.27,265.89 105.92,265.89 105.92,261.62 96.31,261.62 96.31,265.89 83.91,265.89 
		83.91,238.46 	"/>
	<polyline class="st0" points="117.27,238.46 117.27,237.18 120.09,237.18 120.09,265.89 124.6,268.65 	"/>
	<polyline class="st0" points="184.34,267.25 184.34,237.58 146.99,236.42 170.87,237.27 170.87,253.8 	"/>
	<path class="st0" d="M149.04,251.77c0.55,0.01,4.59,0.19,7.16,3.58c2.47,3.25,1.66,6.95,1.54,7.68c-1.02,6.14-5.63,9.21-10.74,8.7
		c-5.84-0.58-9.1-5.76-8.7-10.74c0.24-2.99,1.62-7.17,5.12-8.7C145.79,251.23,148.04,251.56,149.04,251.77z"/>
	<path class="st0" d="M149.04,257.39c2.44,0.35,4.3,2.2,4.55,4.36c0.33,2.87-2.3,5.23-4.73,5.5c-1.55,0.17-2.91-0.26-3.91-1.1
		c-1.3-1.08-2-2.81-1.77-4.4C143.53,259.35,145.98,257.34,149.04,257.39z"/>
	<path class="st0" d="M354.73,263.02c0,0,2-19.15-16.37-20.47c-21.49-1.54-19.83,20.47-19.83,20.47s0.07,17.25,18.14,17.32
		C354.73,280.42,354.73,263.02,354.73,263.02z"/>
	<path class="st0" d="M336.82,252.79c0.55,0.01,4.59,0.19,7.16,3.58c2.47,3.25,1.69,6.95,1.54,7.67c-0.91,4.33-5.09,9.17-10.75,8.7
		c-5.85-0.49-9.51-6.35-9.11-11.33c0.24-2.99,2.03-6.58,5.53-8.11C333.58,252.26,335.82,252.58,336.82,252.79z"/>
	<path class="st0" d="M336.82,258.42c2.44,0.35,4.3,2.2,4.55,4.36c0.33,2.87-2.3,5.23-4.73,5.5c-1.55,0.17-2.91-0.26-3.91-1.1
		c-1.3-1.08-2-2.81-1.77-4.4C331.31,260.37,333.76,258.36,336.82,258.42z"/>
	<polyline class="st0" points="40.05,214.41 182.29,214.41 182.29,176.66 40.56,176.66 	"/>
	<polyline class="st0" points="40.46,174.86 391.7,174.65 391.7,164.74 	"/>
	<polyline class="st0" points="392.66,164.78 392.66,176.64 184.34,176.66 184.34,179.39 183.28,179.39 183.35,214.41 
		184.34,214.41 184.34,218 	"/>
	<line class="st0" x1="216.08" y1="176.66" x2="216.08" y2="214.41"/>
	<polyline class="st0" points="184.34,179.39 216.08,179.39 216.08,180.47 183.29,180.47 	"/>
	<path class="st0" d="M215.11,214.41v-33.95V214.41z"/>
	<polygon class="st0" points="215.11,214.41 214.02,216.46 214.02,218 347.19,218 362.4,223.11 362.4,219.32 352.17,215.44 
		360.87,215.44 360.89,214.41 	"/>
	<polyline class="st0" points="214.02,218 214.02,235.05 362.4,235.05 362.4,223.11 	"/>
	<path class="st0" d="M185.36,266.09l-0.01-48.54l-0.08-3.14c-0.6-0.51-0.93-1.73-0.93-1.73s0-25.9,0-28.45s2.5-2.56,2.5-2.56
		s24.1,0,25.13,0s1.54,1.09,1.54,1.09s0,28.59,0,29.61c0,1.02-1.23,2.05-1.23,2.05l0.21,51.68H185.36z"/>
	<rect x="187.25" y="185.99" class="st0" width="23.89" height="28.43"/>
	<polyline class="st0" points="362.4,235.05 362.4,267.16 395.66,267.16 395.66,179.95 396.5,179.95 396.5,176.67 392.66,176.64 	
		"/>
	<polyline class="st0" points="361.89,219.02 361.89,180.69 395.66,180.69 	"/>
	<line class="st0" x1="360.87" y1="218.51" x2="360.87" y2="176.64"/>
	<path class="st0" d="M364.96,182.69h25.72c0,0,2.42,0.51,2.93,3.07c0,4.09,0,79.82,0,79.82h-29.54v-78.82
		C364.08,186.76,363.42,183.71,364.96,182.69z"/>
	<polygon class="st0" points="390.03,227.72 390.03,187.58 366.64,187.58 366.64,221.9 	"/>
	<path class="st0" d="M366.64,224.14l20.69,5.33c1.59,0.41,2.7,1.84,2.7,3.49v30.41l-21.33-0.63c-1.15-0.03-2.06-0.98-2.06-2.13
		V224.14z"/>
	<polyline class="st0" points="63.06,176.66 63.06,214.41 64.56,214.41 64.61,188.32 116.8,188.32 116.8,214.41 118.68,214.41 
		118.68,176.66 	"/>
	<rect x="66.66" y="181.67" class="st0" width="48.19" height="5.5"/>
	<rect x="234.48" y="178.6" class="st0" width="43.28" height="7.65"/>
	<polyline class="st0" points="279.77,176.65 279.77,214.41 280.78,214.41 280.78,176.65 	"/>
	<polyline class="st0" points="311.49,176.65 311.49,214.41 312.5,214.41 312.5,176.65 	"/>
	<path class="st0" d="M399.29,168.15v54.23c-0.05,4.31,1.59,6.4,4.28,8.3c1.16,0.82,2.6,1.69,4.37,2.54"/>
	<path class="st0" d="M397.19,233.86"/>
	<path class="st0" d="M397.19,267.16c0,0,4.03-0.02,6.84-1.79c1.49-0.94,2.37-2.61,2.37-4.37v-17.79c0-2.22-1.03-4.31-2.77-5.68
		c-2.03-1.6-5.93-2.14-6.44-2.48V267.16z"/>
	<rect x="96.31" y="261.62" class="st1" width="9.6" height="4.27"/>
	<polygon class="st0" points="280.27,236.42 280.27,266.09 259.11,266.09 259.11,261.49 248.81,261.49 248.81,266.09 228.06,266.09 
		228.06,236.42 	"/>
	<rect x="248.81" y="261.49" class="st1" width="10.29" height="4.61"/>
	<line class="st0" x1="44.19" y1="261.09" x2="81.04" y2="261.09"/>
	<line class="st0" x1="44.19" y1="259.16" x2="81.04" y2="259.16"/>
	<line class="st0" x1="44.19" y1="257.22" x2="81.04" y2="257.22"/>
	<line class="st0" x1="44.19" y1="255.28" x2="81.04" y2="255.28"/>
	<line class="st0" x1="44.19" y1="253.34" x2="81.04" y2="253.34"/>
	<line class="st0" x1="44.19" y1="251.4" x2="81.04" y2="251.4"/>
	<line class="st0" x1="44.19" y1="249.46" x2="81.04" y2="249.46"/>
	<line class="st0" x1="44.19" y1="247.52" x2="81.04" y2="247.52"/>
	<line class="st0" x1="44.19" y1="245.58" x2="81.04" y2="245.58"/>
	<line class="st0" x1="44.19" y1="243.64" x2="81.04" y2="243.64"/>
	<line class="st0" x1="44.19" y1="241.7" x2="81.04" y2="241.7"/>
</g>
</svg>
