<?xml version="1.0" encoding="UTF-8"?>
<svg id="Layer_1" data-name="Layer 1" xmlns="http://www.w3.org/2000/svg" viewBox="0 0 504.21 419.5">
  <defs>
    <style>
      .cls-1 {
        fill: #30d158;
        stroke: #30d158;
        stroke-miterlimit: 10;
        stroke-width: .5px;
      }
    </style>
  </defs>
  <polygon class="cls-1" points="358.41 274.06 337.48 295 295.05 252.57 315.98 231.63 317.03 232.68 323.6 239.25 358.41 274.06"/>
  <polygon class="cls-1" points="461.74 419.25 419.61 419.25 401.27 400.91 401.35 400.84 422.34 379.85 461.74 419.25"/>
  <polygon class="cls-1" points="503.61 419.25 467.79 419.25 485.7 401.34 487.95 403.59 503.61 419.25"/>
  <polygon class="cls-1" points="443.26 358.91 422.33 379.85 379.9 337.42 400.84 316.49 401.6 317.25 402.78 318.43 443.26 358.91"/>
  <path class="cls-1" d="M341.6,137.51v24.48c-.22,2.81-.53,5.59-.91,8.35-.41,3-.91,5.97-1.5,8.91h-62.06c2.23-6.38,3.75-13.09,4.47-20.04,.33-3.11,.5-6.26,.5-9.46s-.17-6.35-.5-9.46c-.72-6.95-2.24-13.66-4.47-20.04-9.02-25.94-29.59-46.51-55.53-55.53-6.38-2.23-13.09-3.75-20.04-4.47-3.11-.33-6.26-.5-9.46-.5s-6.35,.17-9.46,.5H60.6L.6,.25H42.6V2.42c.72-.73,1.44-1.45,2.17-2.17H204.34c5.85,.47,11.61,1.28,17.26,2.41,22.14,4.43,42.53,13.75,60,26.79,5.08,3.78,9.91,7.88,14.46,12.26l4.08,4.08c4.38,4.55,8.48,9.38,12.26,14.46,13.04,17.47,22.36,37.86,26.79,60,.09,.47,.18,.93,.27,1.4,.09,.46,.18,.93,.26,1.4,.12,.66,.23,1.31,.34,1.97,.33,1.97,.62,3.95,.87,5.95,.09,.72,.17,1.44,.25,2.17,.16,1.45,.3,2.91,.42,4.37Z"/>
  <path class="cls-1" d="M221.61,144.33v10.84c-2.22,12.23-11.85,21.86-24.08,24.08h-10.84c-4.66-.84-8.94-2.77-12.58-5.5l-6-6c-2.73-3.64-4.66-7.92-5.5-12.58v-10.84c2.22-12.23,11.85-21.86,24.08-24.08h10.84c4.64,.84,8.9,2.75,12.53,5.46l.05,.04,6,6,.04,.05c2.71,3.63,4.62,7.89,5.46,12.53Z"/>
  <polygon class="cls-1" points="358.91 358.41 359.75 359.25 359.6 359.25 316.41 316.06 316.49 315.99 337.48 295 379.9 337.42 358.91 358.41"/>
  <path class="cls-1" d="M274.06,273.56l.97,1.12-1.05-1.05-42.81-42.81c.21-.1,.41-.2,.62-.31,.31-.15,.61-.3,.92-.45,8.57-4.35,16.34-10.03,23.06-16.77l39.28,39.28-20.99,20.99Z"/>
</svg>