<svg id="prefix__Layer_1" data-name="Layer 1" xmlns="http://www.w3.org/2000/svg" viewBox="0 0 450 450"><defs><style>.prefix__cls-1,.prefix__cls-2{stroke:#000;stroke-miterlimit:10;stroke-width:.5px}.prefix__cls-2{fill:none}</style></defs><path class="prefix__cls-2" d="M404.46 185.87c-1.24-7.38-2.91-13.92-5.17-17.72-.79-1.34-1.66-2.34-2.61-2.92h-.01c-.26-.16-.52-.29-.8-.37-.02 0-.03-.02-.05-.02-.05-.02-.1-.04-.15-.05H40.57s-9.21-3.07-7.67 44.51c.04 1.77.07 3.47.1 5.12.35 19.33.4 30.97.33 37.99 0 1.06-.02 2.03-.04 2.89-.12 7.47-.39 7.74-.39 7.74s0 1.54 2.05 2.05c2.05.51 4.69 0 4.69 0l21.41 3.58h66.87s-4.96-30.7 21.65-30.7c14.07 0 19.41 8.15 21.32 15.83 1.7 6.86.68 13.33.68 13.33l12.79.14 131.49 1.4s-5.11-29.68 20.98-29.68 20.07 29.68 20.07 29.68h38.48s10.01-.69 12.57-4.18v-36.76s-.41-23.54-3.49-41.85zM96.31 265.89v-4.27h9.6v4.27h-9.6zm152.5.2v-4.61h10.29v4.61h-10.29z"/><path class="prefix__cls-2" d="M104.72 164.74v-3.03H75.27v3.03M386.73 164.74v-2.31s4.1-.04 6.52 1.16c2.41 1.2 3.42 1.64 3.42 1.64M404.46 185.87h3.66c.83 0 1.55.6 1.69 1.42.5 2.84 1.5 9.4 1.15 14.85h6.7c.51-3.58.83-9.8-2.05-16.37-.5-1.15-1.06-2.21-1.63-3.16a3.04 3.04 0 00-2.55-1.48l-7.84.03M407.94 221.09h2.97s1.12 7.65-.93 12.26l-2.05 4.6M166.94 262s2-19.15-16.37-20.47C129.08 240 130.74 262 130.74 262s.07 17.25 18.14 17.32c18.06.08 18.06-17.32 18.06-17.32zM32.89 209.3l7.16 5.11-.43 50.66M33.28 255.29h6.42M32.89 252.4h7.16"/><path class="prefix__cls-2" d="M33.28 217.55l10.28.01 140.78.44v17.05l-140.71-.17v-16.37h-1.02v15.86h-1.02v-15.86l-1.54-.07M32.98 214.41h7.07l.51-49.63M43.63 238.46v24.85h7.12v1.76h7.83v.82h23.96v-27.43H43.63z"/><path class="prefix__cls-2" d="M80.98 262v-22.41H44.33v22.71l36.65-.3zM117.27 238.46v27.43h-11.35v-4.27h-9.61v4.27h-12.4v-27.43h33.36zM117.27 238.46v-1.28h2.82v28.71l4.51 2.76M184.34 267.25v-29.67l-37.35-1.16 23.88.85v16.53M149.04 251.77c.55 0 4.59.19 7.16 3.58 2.47 3.25 1.66 6.95 1.54 7.68-1.02 6.14-5.63 9.21-10.74 8.7-5.84-.58-9.1-5.76-8.7-10.74.24-2.99 1.62-7.17 5.12-8.7 2.37-1.06 4.62-.73 5.62-.52z"/><path class="prefix__cls-2" d="M149.04 257.39c2.44.35 4.3 2.2 4.55 4.36.33 2.87-2.3 5.23-4.73 5.5-1.55.17-2.91-.26-3.91-1.1-1.3-1.08-2-2.81-1.77-4.4.35-2.4 2.8-4.41 5.86-4.36zM354.73 263.02s2-19.15-16.37-20.47c-21.49-1.54-19.83 20.47-19.83 20.47s.07 17.25 18.14 17.32c18.06.08 18.06-17.32 18.06-17.32z"/><path class="prefix__cls-2" d="M336.82 252.79c.55 0 4.59.19 7.16 3.58 2.47 3.25 1.69 6.95 1.54 7.67-.91 4.33-5.09 9.17-10.75 8.7-5.85-.49-9.51-6.35-9.11-11.33.24-2.99 2.03-6.58 5.53-8.11 2.39-1.04 4.63-.72 5.63-.51z"/><path class="prefix__cls-2" d="M336.82 258.42c2.44.35 4.3 2.2 4.55 4.36.33 2.87-2.3 5.23-4.73 5.5-1.55.17-2.91-.26-3.91-1.1-1.3-1.08-2-2.81-1.77-4.4.35-2.41 2.8-4.42 5.86-4.36zM40.05 214.41h142.24v-37.75H40.56M40.46 174.86l351.24-.21v-9.91"/><path class="prefix__cls-2" d="M392.66 164.78v11.86l-208.32.02v2.73h-1.06l.07 35.02h.99V218M216.08 176.66v37.75"/><path class="prefix__cls-2" d="M184.34 179.39h31.74v1.08h-32.79M215.11 214.41zM215.11 214.41l-1.09 2.05V218h133.17l15.21 5.11v-3.79l-10.23-3.88h8.7l.02-1.03H215.11z"/><path class="prefix__cls-2" d="M214.02 218v17.05H362.4v-11.94M185.36 266.09v-48.54l-.09-3.14c-.6-.51-.93-1.73-.93-1.73v-28.45c0-2.55 2.5-2.56 2.5-2.56h25.13c1.03 0 1.54 1.09 1.54 1.09v29.61c0 1.02-1.23 2.05-1.23 2.05l.21 51.68h-27.13z"/><path class="prefix__cls-2" d="M187.25 185.99h23.89v28.43h-23.89zM362.4 235.05v32.11h33.26v-87.21h.84v-3.28l-3.84-.03"/><path class="prefix__cls-2" d="M361.89 219.02v-38.33h33.77M360.87 218.51v-41.87"/><path class="prefix__cls-2" d="M364.96 182.69h25.72s2.42.51 2.93 3.07v79.82h-29.54v-78.82s-.65-3.05.89-4.07z"/><path class="prefix__cls-2" d="M390.03 227.72v-40.14h-23.39v34.32l23.39 5.82zM366.64 224.14l20.69 5.33c1.59.41 2.7 1.84 2.7 3.49v30.41l-21.33-.63a2.124 2.124 0 01-2.06-2.13v-36.47zM63.06 176.66v37.75h1.5l.05-26.09h52.19v26.09h1.88v-37.75"/><path class="prefix__cls-2" d="M66.66 181.67h48.19v5.5H66.66zM234.48 178.6h43.28v7.65h-43.28zM279.77 176.65v37.76h1.01v-37.76M311.49 176.65v37.76h1.01v-37.76M399.29 168.15v54.23c-.05 4.31 1.59 6.4 4.28 8.3 1.16.82 2.6 1.69 4.37 2.54M397.19 267.16s4.03-.02 6.84-1.79c1.49-.94 2.37-2.61 2.37-4.37v-17.79c0-2.22-1.03-4.31-2.77-5.68-2.03-1.6-5.93-2.14-6.44-2.48v32.11z"/><path class="prefix__cls-1" d="M96.31 261.62h9.6v4.27h-9.6z"/><path class="prefix__cls-2" d="M280.27 236.42v29.67h-21.16v-4.6h-10.3v4.6h-20.75v-29.67h52.21z"/><path class="prefix__cls-1" d="M248.81 261.49h10.29v4.61h-10.29z"/><path class="prefix__cls-2" d="M44.19 261.09h36.85M44.19 259.16h36.85M44.19 257.22h36.85M44.19 255.28h36.85M44.19 253.34h36.85M44.19 251.4h36.85M44.19 249.46h36.85M44.19 247.52h36.85M44.19 245.58h36.85M44.19 243.64h36.85M44.19 241.7h36.85"/></svg>